<svg id="Capa_1" enable-background="new 0 0 511.99 511.99" height="512" viewBox="0 0 511.99 511.99" width="512" xmlns="http://www.w3.org/2000/svg"><g><path d="m473.702 271.272 21.21-21.21c2.86-2.86 3.715-7.161 2.167-10.898-1.548-3.736-5.194-6.173-9.239-6.173h-84.85c-5.523 0-10 4.478-10 10v84.85c0 4.045 2.437 7.691 6.173 9.239 3.737 1.546 8.039.691 10.897-2.168l21.21-21.209 35.369 35.36c3.905 3.904 10.236 3.903 14.142-.001l28.28-28.28c3.905-3.905 3.905-10.236 0-14.142zm.008 56.577-35.369-35.36c-3.905-3.904-10.236-3.904-14.141.001l-11.209 11.209v-50.709h50.708l-11.209 11.209c-3.905 3.905-3.905 10.236 0 14.142l35.361 35.368z"/><path d="m509.052 31.209-28.28-28.28c-3.905-3.902-10.235-3.903-14.142-.001l-35.359 35.351-21.21-21.209c-2.86-2.86-7.162-3.715-10.897-2.168-3.737 1.548-6.173 5.194-6.173 9.239v84.85c0 5.522 4.477 10 10 10h84.85c4.044 0 7.691-2.437 9.239-6.173 1.548-3.737.692-8.038-2.167-10.898l-21.21-21.21 35.351-35.358c3.903-3.907 3.903-10.238-.002-14.143zm-56.564 42.431c-3.905 3.905-3.904 10.236 0 14.142l11.209 11.209h-50.707v-50.709l11.209 11.209c3.905 3.904 10.236 3.903 14.141.001l35.359-35.351 14.14 14.14z"/><path d="m108.99 231.99h-84.85c-4.044 0-7.691 2.437-9.239 6.173-1.548 3.737-.692 8.038 2.167 10.898l21.21 21.21-35.35 35.359c-3.905 3.905-3.904 10.236 0 14.142l28.28 28.28c3.907 3.905 10.235 3.905 14.142.001l35.359-35.351 21.21 21.209c2.859 2.859 7.159 3.714 10.897 2.168 3.737-1.548 6.173-5.194 6.173-9.239v-84.85c.001-5.522-4.476-10-9.999-10zm-10 70.708-11.209-11.209c-3.904-3.903-10.235-3.903-14.141-.001l-35.359 35.351-14.14-14.14 35.351-35.358c3.905-3.905 3.904-10.236 0-14.142l-11.21-11.209h50.708z"/><path d="m112.817 14.901c-3.737-1.546-8.039-.692-10.897 2.168l-21.21 21.209-35.359-35.35c-3.905-3.904-10.236-3.903-14.142.001l-28.28 28.28c-3.905 3.905-3.905 10.236 0 14.142l35.351 35.358-21.21 21.21c-2.86 2.86-3.715 7.161-2.167 10.898 1.548 3.736 5.194 6.173 9.239 6.173h84.85c5.523 0 10-4.478 10-10v-84.85c-.002-4.044-2.438-7.691-6.175-9.239zm-13.827 84.089h-50.708l11.209-11.209c3.905-3.905 3.905-10.236 0-14.142l-35.349-35.358 14.14-14.14 35.358 35.351c3.905 3.904 10.237 3.903 14.141-.001l11.209-11.209z"/><path d="m329.721 316.534c-37.1-7.456-35.919-7.09-37.475-7.61-2.815-.929-5.215-2.424-5.809-9.89 11.028-5.341 20.55-13.565 27.481-23.759 33.611-14.429 52.071-42.465 52.071-79.285 0-60.654-49.346-110-110-110s-110 49.346-110 110c0 36.821 18.46 64.857 52.071 79.285 6.924 10.183 16.435 18.401 27.45 23.743-.693 7.748-3.192 9.503-7.691 10.406l-35.562 7.109c-32.604 6.523-56.268 35.394-56.268 68.646v116.81c0 5.522 4.477 10 10 10h75c5.523 0 10-4.478 10-10s-4.477-10-10-10h-25v-96c0-5.522-4.477-10-10-10s-10 4.478-10 10v10h-20v-20.81c0-23.753 16.903-44.375 40.19-49.035l32.806-6.558c9.406 10.36 22.783 16.393 36.998 16.394h.007c14.212 0 27.591-6.033 37.001-16.395l32.806 6.559c23.289 4.66 40.192 25.282 40.192 49.035v20.81h-20v-10c0-5.522-4.477-10-10-10s-10 4.478-10 10v96h-25c-5.523 0-10 4.478-10 10s4.477 10 10 10h75c5.523 0 10-4.478 10-10v-116.81c.001-33.251-23.663-62.121-56.268-68.645zm-163.731 109.456v66h-20v-66zm0-230c0-49.626 40.374-90 90-90s90 40.374 90 90c0 23.387-9.052 38.773-20.572 48.884.374-2.935.572-5.901.572-8.884v-20.04c0-17.201-8.69-32.979-23.247-42.206-2.538-1.608-5.666-1.988-8.517-1.04-24.657 8.223-51.816 8.223-76.474 0-2.85-.952-5.979-.569-8.519 1.041-14.555 9.23-23.245 25.022-23.245 42.245v20c0 2.983.198 5.949.572 8.884-11.518-10.111-20.57-25.496-20.57-48.884zm89.997 129.992c-6.652-.001-12.839-2.091-17.916-5.898 8.133-9.328 7.729-22.644 7.564-27.943-.127-4.101-2.747-7.708-6.607-9.098-19.411-6.991-33.038-25.56-33.038-47.052v-20c0-8.86 3.835-17.091 10.435-22.751 25.704 7.498 53.427 7.501 79.131-.001 6.6 5.654 10.434 13.871 10.434 22.712v20.04c0 21.472-13.61 40.054-33.038 47.052-3.86 1.39-6.48 4.997-6.607 9.099-.181 5.856-.574 18.868 7.479 28.003-5.063 3.769-11.219 5.837-17.833 5.837-.001 0-.003 0-.004 0zm90.003 166.008v-66h20v66z"/><circle cx="255.99" cy="501.99" r="10"/></g></svg>